<svg width="100" height="100" xmlns="http://www.w3.org/2000/svg">
 <g>
  <title>background</title>
  <rect x="-1" y="-1" width="17.384604" height="17.384604" id="canvas_background" fill="none"/>
 </g>

 <g>
  <title>Layer 1</title>
  <path stroke="#696969" id="svg_1" d="m-0.070427,11.705808l0,0c0,-6.46494 5.137296,-11.705808 11.474471,-11.705808l5.215671,0l0,0l25.035215,0l46.941016,0c3.043227,0 5.961801,1.233285 8.113687,3.428551c2.151872,2.195267 3.360791,5.172686 3.360791,8.277257l0,29.264524l0,0l0,17.558709l0,0c0,6.464943 -5.137293,11.705808 -11.474474,11.705808l-46.941016,0l-32.70542,29.76515l7.670204,-29.76515l-5.215671,0c-6.337175,0 -11.474471,-5.240865 -11.474471,-11.705808l0,0l0,-17.558709l0,0l-0.000003,-29.264524z" stroke-opacity="null" stroke-width="0" fill="#007fff"/>
 </g>
</svg>