<svg width="50" height="50" xmlns="http://www.w3.org/2000/svg">
 <!-- Created with SVG Editor - http://github.com/mzalive/SVG Editor/ -->
 <g>
  <title>background</title>
  <rect fill="none" id="canvas_background" height="52" width="52" y="-1" x="-1"/>
 </g>
 <g>
  <title>Layer 1</title>
  <path id="svg_1" d="m46.016963,40.423351l-11.274231,-11.274227c1.518841,-2.504505 2.409578,-5.434601 2.41116,-8.576703c-0.001582,-9.165253 -7.423336,-16.588586 -16.583847,-16.591751c-9.162093,0.003164 -16.587011,7.426497 -16.587011,16.590169c0,9.158925 7.424918,16.582258 16.587011,16.582258c3.143685,0 6.073783,-0.890737 8.578288,-2.409577l11.277396,11.275809l5.591234,-5.595978zm-35.707006,-19.852511c0.009493,-5.667174 4.592912,-10.249009 10.258506,-10.261666c5.66243,0.012657 10.249014,4.594493 10.258506,10.261666c-0.011075,5.664009 -4.596077,10.245845 -10.258506,10.258502c-5.665594,-0.012657 -10.249014,-4.594493 -10.258506,-10.258502z" stroke-width="null" stroke="#ffffff" fill="#ffffff"/>
 </g>
</svg>