<svg width="100" height="100" xmlns="http://www.w3.org/2000/svg">
 <!-- Created with SVG Editor - http://github.com/mzalive/SVG Editor/ -->

 <g>
  <title>background</title>
  <rect x="-1" y="-1" width="102" height="102" id="canvas_background" fill="none"/>
 </g>
 <g>
  <title>Layer 1</title>
  <path fill="#007fff" stroke-width="0" d="m35.63288,88.20264c-26.02896,-23.19006 -35.33535,-37.85967 -35.41078,-55.81794c-0.06878,-16.37115 11.41948,-32.17173 23.32504,-32.08061c5.9451,0.04559 18.69773,6.07107 23.21347,10.96828c2.2753,2.46749 3.353,2.22417 8.41871,-1.90077c13.78673,-11.22633 27.24961,-11.46196 35.96877,-0.6295c13.93506,17.31256 11.39803,37.98691 -7.29311,59.4318c-9.93728,11.40135 -31.63812,31.62798 -33.93316,31.62798c-0.69834,0 -7.12836,-5.21967 -14.28894,-11.59924l0,0.00001l0,-0.00001z" id="svg_1" stroke="#696969"/>
 </g>
</svg>