<svg width="99.99999999999999" height="99.99999999999999" xmlns="http://www.w3.org/2000/svg">
 <!-- Created with SVG Editor - http://github.com/mzalive/SVG Editor/ -->

 <g>
  <title>background</title>
  <rect fill="none" id="canvas_background" height="102" width="102" y="-1" x="-1"/>
 </g>
 <g>
  <title>Layer 1</title>
  <path stroke="#007fff" id="svg_1" d="m36.237277,86.398552c-24.798624,-22.134652 -33.665119,-36.136629 -33.736984,-53.277596c-0.065529,-15.626079 10.879704,-30.707555 22.222512,-30.620582c5.664087,0.043515 17.813926,5.794768 22.116216,10.4691c2.167751,2.355191 3.19451,2.122945 8.020775,-1.814264c13.135059,-10.715406 25.961576,-10.940312 34.268599,-0.600851c13.276378,16.524644 10.859268,36.258078 -6.948379,56.726985c-9.467565,10.88246 -30.14265,30.188551 -32.329208,30.188551c-0.665331,0 -6.791417,-4.982116 -13.613531,-11.071344l0,0.00001l0,-0.00001z" stroke-width="5" fill="none"/>
 </g>
</svg>