<svg width="612.027" height="612.027" xmlns="http://www.w3.org/2000/svg">

 <g>
  <title>background</title>
  <rect fill="none" id="canvas_background" height="428.667" width="428.667" y="-1" x="-1"/>
 </g>
 <g>
  <title>Layer 1</title>
  <g id="svg_1">
   <path stroke="#ffffff" fill="#ffffff" id="svg_2" d="m27.7765,236.5315c-15.347,0 -27.776,12.345 -27.776,27.804l0,83.413c0,15.348 12.317,27.805 27.776,27.805l81.467,0c2.475,7.006 5.311,13.818 8.508,20.463l-57.638,57.611c-10.844,10.844 -10.927,28.359 0.028,39.287l59,59c10.844,10.873 28.36,10.928 39.288,0.029l57.75,-57.75c6.59,3.141 13.374,5.949 20.325,8.396l0,81.662c0,15.348 12.345,27.775 27.804,27.775l83.413,0c15.348,0 27.804,-12.316 27.804,-27.775l0,-81.773c6.924,-2.447 13.68,-5.254 20.241,-8.396l57.833,57.832c10.844,10.844 28.36,10.928 39.288,-0.027l59,-59c10.872,-10.844 10.928,-28.389 0.028,-39.287l-57.833,-57.834c3.142,-6.562 5.95,-13.318 8.396,-20.242l81.772,0c15.349,0 27.776,-12.344 27.776,-27.803l0,-83.414c0,-15.348 -12.316,-27.804 -27.776,-27.804l-81.66,0c-2.446,-6.951 -5.255,-13.735 -8.396,-20.325l57.722,-57.75c10.844,-10.844 10.927,-28.36 -0.028,-39.288l-59,-59c-10.872,-10.872 -28.389,-10.927 -39.288,-0.028l-57.61,57.638c-6.617,-3.17 -13.457,-6.034 -20.464,-8.508l0,-81.466c-0.002,-15.348 -12.346,-27.776 -27.805,-27.776l-83.413,0c-15.348,0 -27.805,12.317 -27.805,27.776l0,81.355c-7.034,2.475 -13.902,5.311 -20.547,8.508l-57.527,-57.499c-10.844,-10.844 -28.36,-10.927 -39.288,0.028l-59,58.973c-10.844,10.844 -10.927,28.36 -0.028,39.288l57.527,57.527c-3.198,6.673 -6.034,13.513 -8.508,20.547l-81.356,0l0,0.028zm278.071,-69.678c76.767,0 139.021,62.254 139.021,139.021c0,76.768 -62.254,139.022 -139.021,139.022c-76.768,0 -139.021,-62.254 -139.021,-139.022c0,-76.767 62.254,-139.021 139.021,-139.021z"/>
  </g>
  <g id="svg_3"/>
  <g id="svg_4"/>
  <g id="svg_5"/>
  <g id="svg_6"/>
  <g id="svg_7"/>
  <g id="svg_8"/>
  <g id="svg_9"/>
  <g id="svg_10"/>
  <g id="svg_11"/>
  <g id="svg_12"/>
  <g id="svg_13"/>
  <g id="svg_14"/>
  <g id="svg_15"/>
  <g id="svg_16"/>
  <g id="svg_17"/>
 </g>
</svg>