<svg width="100" height="100" xmlns="http://www.w3.org/2000/svg">
 <g>
  <title>background</title>
  <rect fill="none" id="canvas_background" height="16.598513" width="16.598513" y="-1" x="-1"/>
 </g>

 <g>
  <title>Layer 1</title>
  <path stroke="#696969" id="svg_2" d="m49.999999,20.43196c-27.331368,0 -48.896564,29.566125 -48.896564,29.566125s21.565196,29.569958 48.896564,29.569958c20.902376,0 48.896564,-29.569958 48.896564,-29.569958s-27.994188,-29.566125 -48.896564,-29.566125zm0,47.990336c-9.594592,0 -17.410799,-8.267323 -17.410799,-18.424211s7.816206,-18.424211 17.410799,-18.424211s17.410799,8.271156 17.410799,18.424211s-7.816206,18.424211 -17.410799,18.424211zm0,-29.179014c-5.610428,0 -10.163241,4.813982 -10.163241,10.754803c0,5.940821 4.549191,10.754803 10.163241,10.754803c5.61405,0 10.163241,-4.813982 10.163241,-10.754803c0,-5.936988 -4.549191,-10.754803 -10.163241,-10.754803z" stroke-opacity="null" stroke-width="0" fill="#00bfff"/>
 </g>
</svg>